<?xml version="1.0" encoding="UTF-8"?>
<svg version="1.1" xmlns="http://www.w3.org/2000/svg" width="1017" height="492">
<path d="M0 0 C335.61 0 671.22 0 1017 0 C1017 162.36 1017 324.72 1017 492 C681.39 492 345.78 492 0 492 C0 329.64 0 167.28 0 0 Z " fill="#FEFEFE" transform="translate(0,0)"/>
<path d="M0 0 C0 21.12 0 42.24 0 64 C1.65 64.33 3.3 64.66 5 65 C5 43.55 5 22.1 5 0 C20.25150602 0 20.25150602 0 26.5 1.125 C27.24717285 1.25696777 27.9943457 1.38893555 28.76416016 1.52490234 C67.25821274 8.73807361 102.95455866 28.77615767 127 60 C127.70382812 60.84175781 128.40765625 61.68351562 129.1328125 62.55078125 C148.07538018 86.0083337 159.16269557 118.18489893 159.0246582 148.31079102 C159.02287819 149.05148079 159.02109818 149.79217056 159.01926422 150.55530548 C159.01464545 152.37020914 159.00757042 154.18510626 159 156 C157.507817 155.98881386 157.507817 155.98881386 155.98548889 155.97740173 C146.58442321 155.91282464 137.18429997 155.89586349 127.78304386 155.92484188 C122.95021276 155.93822658 118.11858586 155.93516695 113.28588867 155.89379883 C108.61684603 155.8544487 103.94969666 155.85924529 99.28063774 155.89392281 C97.5045512 155.89949732 95.72834145 155.88949071 93.95244026 155.86323357 C84.00464663 155.51686949 84.00464663 155.51686949 74.93893433 158.92752075 C68.23820395 165.4479812 64.84986285 172.02465488 64.5625 181.375 C64.7195725 186.75316238 65.76127823 191.43969236 67.31640625 196.56640625 C68.66292729 201.36002116 68.60437693 204.65985984 66.5625 209.1875 C63.61056503 212.42742862 61.08119405 213.56680814 57.0234375 215.04296875 C54.66370724 215.94652906 54.66370724 215.94652906 53 219 C53.24747172 220.84323767 53.5704615 222.67680223 53.9375 224.5 C54.36094724 228.49868925 54.38014297 230.37017221 52.28125 233.84765625 C50.69296131 235.68742398 49.0675372 237.49565948 47.41015625 239.2734375 C45.02345469 241.97346617 43.49479294 244.48322295 41.875 247.6875 C38.30630555 254.59752055 34.04130995 260.41515356 27 264 C24.32425949 264.81971968 21.71507197 265.54379751 19 266.1875 C17.95199219 266.45336914 17.95199219 266.45336914 16.8828125 266.72460938 C13.18955411 267.62701874 9.80378654 268.21544885 6 268 C3.96780512 264.59648662 3.63108961 261.6767073 3.375 257.75 C3.30023437 256.67234375 3.22546875 255.5946875 3.1484375 254.484375 C3.09945313 253.66453125 3.05046875 252.8446875 3 252 C2.34 252 1.68 252 1 252 C-1.5357951 247.45305707 -3.24622808 243.40211232 -4.375 238.3125 C-5.70126537 232.48430053 -7.96370035 227.50326798 -10.6953125 222.203125 C-13.62877399 215.00121356 -13.17820466 210.09542018 -10.5625 203.0625 C-7.73335122 194.58089096 -6.25398885 189.26095081 -10.31323242 180.84936523 C-11.82215514 177.87045213 -13.41645468 174.93990105 -15 172 C-15.83416792 170.28118137 -16.6507655 168.55354062 -17.4375 166.8125 C-17.74558594 166.13832031 -18.05367187 165.46414062 -18.37109375 164.76953125 C-19 163 -19 163 -19 160 C-35.5 160 -52 160 -69 160 C-69 179.14 -69 198.28 -69 218 C-81.54 218 -94.08 218 -107 218 C-107 197.54 -107 177.08 -107 156 C-119.54 156 -132.08 156 -145 156 C-145 175.8 -145 195.6 -145 216 C-157.21 216 -169.42 216 -182 216 C-182.04898438 210.56917969 -182.09796875 205.13835937 -182.1484375 199.54296875 C-182.18386042 196.08396676 -182.21984126 192.6249883 -182.2578125 189.16601562 C-182.31791039 183.68664073 -182.3760424 178.20729842 -182.421875 172.7277832 C-182.45899348 168.30562959 -182.50542207 163.8836593 -182.55806351 159.4616642 C-182.5764674 157.78218137 -182.59162587 156.10265946 -182.60334396 154.42311668 C-182.23070634 136.75028236 -182.23070634 136.75028236 -189 121 C-194.63599247 117.43437211 -200.44795043 117.16216608 -207 118 C-211.55445185 119.3435633 -214.31071817 121.1837452 -217.375 124.8125 C-220.4486809 130.8416433 -221.29909363 136.53416184 -221.31884766 143.23022461 C-221.33391609 144.41681671 -221.33391609 144.41681671 -221.34928894 145.62738037 C-221.37996091 148.21902804 -221.3971112 150.81057317 -221.4140625 153.40234375 C-221.43278704 155.20838798 -221.4523614 157.01442359 -221.4727478 158.82044983 C-221.52393919 163.55663959 -221.56363424 168.29285767 -221.60089111 173.0291748 C-221.64807585 178.72120706 -221.70961775 184.41310022 -221.76873779 190.10501862 C-221.85679156 198.73662252 -221.92666928 207.36820191 -222 216 C-234.87 216 -247.74 216 -261 216 C-261 173.1 -261 130.2 -261 86 C-248.13 86 -235.26 86 -222 86 C-221.505 91.94 -221.505 91.94 -221 98 C-219.948125 96.9171875 -219.948125 96.9171875 -218.875 95.8125 C-209.71693208 86.75675686 -201.23015099 82.88569108 -188.1875 82.8125 C-176.593611 82.93428455 -166.53781061 85.68686861 -158 94 C-155.55352929 97.26024413 -153.25023334 100.60195311 -151 104 C-150.47212891 103.12988281 -150.47212891 103.12988281 -149.93359375 102.2421875 C-149.43988281 101.46101563 -148.94617188 100.67984375 -148.4375 99.875 C-147.72400391 98.72644531 -147.72400391 98.72644531 -146.99609375 97.5546875 C-145.24770199 95.31701977 -143.77732331 93.97363985 -141.578125 92.25 C-137.451902 88.82464133 -135.55963338 84.91535163 -133.3125 80.125 C-115.83122139 45.23979357 -82.51130636 19.68362629 -45.984375 7.10644531 C-30.60650022 2.05386844 -16.23068354 0 0 0 Z " fill="#FCC500" transform="translate(845,30)"/>
<path d="M0 0 C1.83014648 -0.01160156 1.83014648 -0.01160156 3.69726562 -0.0234375 C4.89673828 -0.02085938 6.09621094 -0.01828125 7.33203125 -0.015625 C8.40815674 -0.01336914 9.48428223 -0.01111328 10.59301758 -0.00878906 C15.17477799 0.32108026 19.68308526 1.34911705 24.1875 2.25 C24.1875 12.48 24.1875 22.71 24.1875 33.25 C21.2175 32.92 18.2475 32.59 15.1875 32.25 C8.51039429 31.67874692 2.64057933 31.91961347 -2.8125 36.25 C-4.55074082 39.1557632 -5.09015729 41.43221322 -5.2265625 44.796875 C-5.26217285 45.55838867 -5.2977832 46.31990234 -5.33447266 47.10449219 C-5.36847168 48.06000977 -5.4024707 49.01552734 -5.4375 50 C-5.623125 54.57875 -5.623125 54.57875 -5.8125 59.25 C3.4275 59.25 12.6675 59.25 22.1875 59.25 C22.6825 65.685 22.6825 65.685 23.1875 72.25 C23.46722656 71.18523437 23.74695313 70.12046875 24.03515625 69.0234375 C28.08670795 54.1320869 33.6484516 41.82084335 44.1875 30.25 C44.80109375 29.54359375 45.4146875 28.8371875 46.046875 28.109375 C58.85238594 14.20937594 79.25607221 5.18583212 97.98046875 4.0859375 C123.40471592 3.11923609 146.23413595 6.66646103 166.09375 23.75 C180.30993931 37.18508001 186.61793135 53.43888866 190.1875 72.25 C159.85459003 74.63776806 159.85459003 74.63776806 147.1875 74.25 C146.89617187 73.404375 146.60484375 72.55875 146.3046875 71.6875 C141.88231154 59.44947848 136.94768029 51.91026626 125.01953125 46.21484375 C114.44273875 42.30088439 100.66909157 42.64255045 90.3828125 47.109375 C87.46501618 48.62538305 84.80419848 50.25632497 82.1875 52.25 C80.97707031 53.15298828 80.97707031 53.15298828 79.7421875 54.07421875 C70.04157531 62.33605513 65.45801659 76.94673217 64.1875 89.25 C63.25794536 107.34853995 64.36537042 123.55463784 74.1875 139.25 C76.62499119 141.95858335 76.62499119 141.95858335 79.1875 144.25 C79.7753125 144.79785156 80.363125 145.34570312 80.96875 145.91015625 C90.84105876 153.96506271 102.82470229 155.34862121 115.1875 154.25 C125.95235724 152.49787452 135.35130234 149.06553469 142.1875 140.25 C144.64269201 136.07553917 146.65620395 131.84388814 148.1875 127.25 C152.11627004 127.36991829 156.04487598 127.49423665 159.97338867 127.62231445 C161.95289182 127.68598477 163.93250031 127.74635298 165.91210938 127.80664062 C173.36948313 128.05207318 180.76700764 128.46140941 188.1875 129.25 C188.15640137 128.41654053 188.12530273 127.58308105 188.09326172 126.72436523 C187.47512897 107.01046132 193.2081215 87.75522878 206.8125 73.0625 C222.20860012 58.58778811 239.87494464 55.7254132 260.1015625 55.97265625 C276.74698943 56.48881343 290.76427706 63.20191701 302.1875 75.25 C315.34450622 90.86913604 319.30869415 111.33351489 318.1875 131.25 C316.18334955 149.61913737 308.80120038 166.51391238 295.1875 179.25 C279.0647167 191.57780068 260.04571323 194.94204759 240.25 192.5 C225.0923305 190.13520649 210.72664071 183.09487388 201.24609375 170.71484375 C194.3199313 160.31812042 190.60562164 149.43890584 188.1875 137.25 C187.97996094 137.96542969 187.77242187 138.68085938 187.55859375 139.41796875 C181.477956 159.08463393 170.29105795 173.94497453 152.1328125 183.9296875 C128.99384217 195.30116192 99.59881185 197.20258622 75.125 189.0625 C63.45726193 184.58093879 54.09026317 179.02648284 45.1875 170.25 C44.56359375 169.69828125 43.9396875 169.1465625 43.296875 168.578125 C29.30219812 155.84422982 21.53534348 133.81763727 20.1875 115.25 C20.07887645 111.24844873 20.09269325 107.25260598 20.125 103.25 C20.145625 99.62 20.16625 95.99 20.1875 92.25 C11.6075 92.25 3.0275 92.25 -5.8125 92.25 C-5.8125 124.92 -5.8125 157.59 -5.8125 191.25 C-19.3425 191.25 -32.8725 191.25 -46.8125 191.25 C-46.8125 158.58 -46.8125 125.91 -46.8125 92.25 C-53.4125 92.25 -60.0125 92.25 -66.8125 92.25 C-66.8125 81.36 -66.8125 70.47 -66.8125 59.25 C-60.5425 59.25 -54.2725 59.25 -47.8125 59.25 C-47.85375 57.125625 -47.895 55.00125 -47.9375 52.8125 C-47.98447512 37.72006587 -47.23241602 23.23480775 -36.6875 11.375 C-26.07224206 1.72691001 -13.68406186 -0.08592817 0 0 Z " fill="#FBC301" transform="translate(258.8125,56.75)"/>
<path d="M0 0 C12.21 0 24.42 0 37 0 C37 19.14 37 38.28 37 58 C49.54 58 62.08 58 75 58 C75 38.86 75 19.72 75 0 C91.5 0 108 0 125 0 C126.32 3.63 127.64 7.26 129 11 C130.52803947 14.00101937 130.52803947 14.00101937 132.125 16.375 C136.05907058 22.46975183 138.04399593 27.65187482 137 35 C136.04899175 38.40417726 134.92609075 41.75239912 133.69116211 45.0637207 C131.4043885 51.54973997 131.87532118 56.312306 134.5234375 62.640625 C135.1324411 63.8479132 135.74986669 65.05098435 136.375 66.25 C139.57033645 72.69977084 141.46420205 78.95912347 143 86 C143.6364436 88.00982188 144.2839666 90.01713828 145 92 C145.66 92 146.32 92 147 92 C148.39699026 94.79398052 148.60871135 97.53923715 149.0625 100.625 C149.32740234 102.40777344 149.32740234 102.40777344 149.59765625 104.2265625 C149.73042969 105.14179688 149.86320313 106.05703125 150 107 C160.03186825 106.30814702 172.09693945 104.91326453 179 97 C181.47543567 93.41547768 183.74207243 89.72404796 186 86 C187.03061982 84.38871389 188.07151717 82.78393167 189.125 81.1875 C189.60324219 80.4553125 190.08148437 79.723125 190.57421875 78.96875 C191.90352257 77.13321816 193.29999399 75.73929633 194.9375 74.1875 C197.78099734 69.79300411 196.79712673 66.81683691 196.16796875 61.77734375 C196 59 196 59 197.375 56 C200.40873275 53.68858457 203.40106224 52.37868687 206.9765625 51.08984375 C209.48713303 49.73762526 210.04471615 48.65078764 211 46 C211.45230346 41.56742606 210.78877177 38.07114316 209.5 33.875 C206.98491953 25.11433692 206.64542943 16.46730341 210.5390625 8.09765625 C215.72553882 0.65076378 215.72553882 0.65076378 219.90569687 -0.54525375 C222.11950942 -0.73628762 224.26263096 -0.74312029 226.48388672 -0.68115234 C227.31381638 -0.6820285 228.14374603 -0.68290466 228.99882507 -0.68380737 C231.72675554 -0.67964575 234.45218973 -0.63306448 237.1796875 -0.5859375 C239.07681943 -0.57474021 240.97396876 -0.56620254 242.87112427 -0.56021118 C247.85282699 -0.53735471 252.83347208 -0.47845902 257.8147583 -0.4119873 C262.90240167 -0.35049601 267.99021675 -0.32318156 273.078125 -0.29296875 C283.0525468 -0.22871262 293.02618529 -0.12637173 303 0 C303.01897562 2.71023846 303.03279767 5.42034208 303.04370117 8.13061523 C303.04955986 8.8919149 303.05541855 9.65321457 303.06145477 10.43758392 C303.07958514 16.45554746 302.51203662 22.15890923 301.3125 28.0625 C301.13388428 28.98659668 300.95526855 29.91069336 300.77124023 30.86279297 C298.24479443 43.40707951 294.31925318 55.35266977 289 67 C288.51015625 68.08539063 288.0203125 69.17078125 287.515625 70.2890625 C281.27409428 83.45572017 273.16729573 95.17949978 263.140625 105.7421875 C261.44682548 107.52871327 259.8926517 109.31752351 258.375 111.25 C255.21400482 114.91009969 251.73088429 117.93251927 248 121 C246.64455078 122.12921875 246.64455078 122.12921875 245.26171875 123.28125 C231.9737037 133.95218458 217.17103302 142.5380275 201 148 C200.2570166 148.25620117 199.5140332 148.51240234 198.74853516 148.77636719 C158.85904393 162.31511365 116.79517129 159.43548252 79 141 C78.36755371 140.69336426 77.73510742 140.38672852 77.08349609 140.07080078 C62.47729995 132.8887074 50.0825195 123.67692564 38.41943359 112.36376953 C37.18326128 111.17607457 35.91632747 110.02056131 34.64453125 108.87109375 C23.60844226 98.59888706 14.94586164 85.04924129 7.96916199 71.76971436 C7.08775612 70.16024491 6.11329719 68.60262399 5.13012695 67.05322266 C-2.13753163 54.33360773 -0.77634637 40.80592094 -0.4375 26.5625 C-0.40232573 23.98116232 -0.37039759 21.39977826 -0.34179688 18.81835938 C-0.27129252 12.54347217 -0.1342387 6.2751266 0 0 Z " fill="#0A66C8" transform="translate(701,190)"/>
<path d="M0 0 C17.49 0 34.98 0 53 0 C56.66637234 9.7769929 60.2810237 19.52025236 63.65234375 29.39453125 C64.29144505 31.25652014 64.93054824 33.11850839 65.56973267 34.98046875 C66.23741172 36.92667497 66.90403205 38.87324078 67.57034302 40.81991577 C69.66832537 46.94863641 71.77393615 53.07473795 73.87915611 59.20097542 C74.35034034 60.57219034 74.82145164 61.94343032 75.29249001 63.31469536 C79.51830646 75.61640953 83.77486479 87.90718931 88.0625 100.1875 C88.5141452 101.48205612 88.5141452 101.48205612 88.97491455 102.80276489 C92.03682505 111.57653515 95.11577872 120.34386451 98.234375 129.09765625 C99.26103527 131.98155112 100.28714846 134.86563955 101.3125 137.75 C101.55473297 138.4312796 101.79696594 139.1125592 102.04653931 139.81448364 C107.35568898 154.77598012 112.19208208 169.86919949 117 185 C102.15 185 87.3 185 72 185 C70.370625 180.194375 68.74125 175.38875 67.0625 170.4375 C66.54953369 168.93501709 66.03656738 167.43253418 65.50805664 165.88452148 C64.90272095 164.08349976 64.90272095 164.08349976 64.28515625 162.24609375 C63.66459351 160.41582642 63.66459351 160.41582642 63.03149414 158.54858398 C62 155 62 155 61 148 C38.23 148.33 15.46 148.66 -8 149 C-11.96 160.88 -15.92 172.76 -20 185 C-34.52 185 -49.04 185 -64 185 C-63.09559834 180.47799171 -61.82928242 176.29021566 -60.33203125 171.94921875 C-60.06134323 171.15662155 -59.79065521 170.36402435 -59.51176453 169.54740906 C-58.61537562 166.92627279 -57.71411433 164.30684304 -56.8125 161.6875 C-56.17307139 159.82311567 -55.53375032 157.95869446 -54.89453125 156.09423828 C-49.96640757 141.73793896 -44.9699286 127.40587143 -39.94024658 113.08488464 C-39.64156677 112.23445084 -39.34288696 111.38401703 -39.03515625 110.5078125 C-38.57529327 109.19850517 -38.57529327 109.19850517 -38.10614014 107.86274719 C-35.52222231 100.50034843 -32.9533573 93.13273581 -30.38759613 85.76399422 C-20.41307168 57.1184085 -10.38658166 28.49976674 0 0 Z " fill="#D82E2C" transform="translate(90,62)"/>
<path d="M0 0 C15.25150602 0 15.25150602 0 21.5 1.125 C22.24717285 1.25696777 22.9943457 1.38893555 23.76416016 1.52490234 C62.25821274 8.73807361 97.95455866 28.77615767 122 60 C122.70382812 60.84175781 123.40765625 61.68351562 124.1328125 62.55078125 C145.5882373 89.12013347 154 122.53918253 154 156 C127.6 156 101.2 156 74 156 C76.475 153.525 76.475 153.525 79 151 C85.35909934 143.86129954 90 131.64746643 90 122 C89.05125 122.144375 88.1025 122.28875 87.125 122.4375 C86.48691406 122.51871094 85.84882812 122.59992188 85.19140625 122.68359375 C82.95299527 122.97881096 82.95299527 122.97881096 80.58984375 123.53515625 C76.97982501 124.19913188 74.24089219 124.63428504 70.8984375 122.92578125 C68.6839854 121.10393121 66.86833566 119.17666611 65 117 C64.29230469 116.18402344 63.58460938 115.36804688 62.85546875 114.52734375 C56.37868051 106.46255139 51.8327392 97.51244937 47.20043945 88.3112793 C45.5799135 85.19118184 43.8224965 82.15516558 42.04272461 79.12353516 C40.57149814 76.12734507 39.98304514 73.12512742 39.45703125 69.84765625 C39.11111718 67.76669833 39.11111718 67.76669833 37 66 C34.84057046 65.77070573 32.67017332 65.64034317 30.5 65.5625 C25.90509777 65.31323714 21.91960424 64.85869805 17.5625 63.375 C13.35205092 61.96460326 10.37118439 61.77606837 6 63 C3.73545927 64.46771271 3.73545927 64.46771271 2 66 C1.34 66 0.68 66 0 66 C0 44.22 0 22.44 0 0 Z " fill="#168C4D" transform="translate(850,30)"/>
<path d="M0 0 C1.83014648 -0.01160156 1.83014648 -0.01160156 3.69726562 -0.0234375 C4.89673828 -0.02085938 6.09621094 -0.01828125 7.33203125 -0.015625 C8.40815674 -0.01336914 9.48428223 -0.01111328 10.59301758 -0.00878906 C15.17477799 0.32108026 19.68308526 1.34911705 24.1875 2.25 C24.1875 12.48 24.1875 22.71 24.1875 33.25 C21.2175 32.92 18.2475 32.59 15.1875 32.25 C8.51039429 31.67874692 2.64057933 31.91961347 -2.8125 36.25 C-4.55074082 39.1557632 -5.09015729 41.43221322 -5.2265625 44.796875 C-5.26217285 45.55838867 -5.2977832 46.31990234 -5.33447266 47.10449219 C-5.36847168 48.06000977 -5.4024707 49.01552734 -5.4375 50 C-5.623125 54.57875 -5.623125 54.57875 -5.8125 59.25 C3.4275 59.25 12.6675 59.25 22.1875 59.25 C22.22875 62.653125 22.27 66.05625 22.3125 69.5625 C22.33070801 70.61091064 22.34891602 71.65932129 22.36767578 72.73950195 C22.3726709 73.60534912 22.37766602 74.47119629 22.3828125 75.36328125 C22.39328613 76.22735596 22.40375977 77.09143066 22.41455078 77.98168945 C22.08094599 82.78380486 21.04859892 87.51395595 20.1875 92.25 C11.6075 92.25 3.0275 92.25 -5.8125 92.25 C-5.8125 124.92 -5.8125 157.59 -5.8125 191.25 C-19.3425 191.25 -32.8725 191.25 -46.8125 191.25 C-46.8125 158.58 -46.8125 125.91 -46.8125 92.25 C-53.4125 92.25 -60.0125 92.25 -66.8125 92.25 C-66.8125 81.36 -66.8125 70.47 -66.8125 59.25 C-60.5425 59.25 -54.2725 59.25 -47.8125 59.25 C-47.85375 57.125625 -47.895 55.00125 -47.9375 52.8125 C-47.98447512 37.72006587 -47.23241602 23.23480775 -36.6875 11.375 C-26.07224206 1.72691001 -13.68406186 -0.08592817 0 0 Z " fill="#168B4B" transform="translate(258.8125,56.75)"/>
<path d="M0 0 C0 20.79 0 41.58 0 63 C-10.28571429 61.71428571 -10.28571429 61.71428571 -14 58 C-14.49642192 54.93697114 -14.35463102 52.07346884 -14 49 C-19.00319318 46.49840341 -25.72987547 47.85148754 -31 49 C-36.89811289 50.23193774 -42.64294204 50.07285317 -48.63085938 49.75 C-53.94283786 49.58269359 -56.77377617 50.47495961 -61 54 C-63.56962959 57.24982566 -65.18363536 60.43456806 -66.67578125 64.25390625 C-68.89992893 69.30855398 -72.03628765 72.55407921 -76.0625 76.25 C-81.74728077 81.53742104 -81.74728077 81.53742104 -86 88 C-88.56408457 87.52414286 -91.04848219 86.98567065 -93.55078125 86.24609375 C-106.20881284 82.53999398 -118.47013308 82.99903003 -131 87 C-132.2375 87.391875 -133.475 87.78375 -134.75 88.1875 C-135.86375 88.5896875 -135.86375 88.5896875 -137 89 C-127.5363997 57.2258394 -96.93243148 32.18553026 -68.98535156 16.89794922 C-47.31411164 5.48288434 -24.42353527 0 0 0 Z " fill="#E43432" transform="translate(845,30)"/>
<path d="M0 0 C7.08164106 4.04319336 10.71961059 9.59119623 13.40625 17.234375 C14.6900194 22.25893791 14.75439069 27.33007263 14.78515625 32.4921875 C14.791521 33.40621338 14.79788574 34.32023926 14.80444336 35.26196289 C14.61585045 45.37764912 12.07218437 54.60664889 5.28515625 62.3046875 C-2.12853164 68.28991915 -9.35519423 69.12984552 -18.71484375 68.3046875 C-26.20484156 66.39185729 -31.77283011 61.80964588 -35.96484375 55.390625 C-42.43746602 43.44482949 -42.13877934 29.1476025 -38.7421875 16.28125 C-35.88715009 8.00924047 -31.58389238 3.60093559 -23.984375 -0.6015625 C-16.21069201 -4.34791575 -7.70986462 -3.54336092 0 0 Z " fill="#FEFEFD" transform="translate(524.71484375,148.6953125)"/>
<path d="M0 0 C2.07196532 1.16628151 3.95513146 2.43950646 5.64453125 4.12890625 C5.97453125 2.80890625 6.30453125 1.48890625 6.64453125 0.12890625 C10.93453125 0.12890625 15.22453125 0.12890625 19.64453125 0.12890625 C19.7352138 7.42257312 19.80846543 14.71592745 19.85177994 22.01004028 C19.87257796 25.39769583 19.90075012 28.78494281 19.94628906 32.17236328 C19.99497818 36.07465271 20.01754054 39.97636777 20.03515625 43.87890625 C20.05580139 45.08442139 20.07644653 46.28993652 20.09771729 47.53198242 C20.09980834 55.42612576 19.3177002 61.13163415 13.78515625 67.15234375 C5.86469792 72.81448958 -1.67625522 74.02385487 -11.35546875 73.12890625 C-16.78662747 71.97887728 -21.47987491 70.2259626 -25.35546875 66.12890625 C-29.35546875 59.5104852 -29.35546875 59.5104852 -29.35546875 56.12890625 C-25.06546875 56.12890625 -20.77546875 56.12890625 -16.35546875 56.12890625 C-16.02546875 57.11890625 -15.69546875 58.10890625 -15.35546875 59.12890625 C-11.04904725 61.68584402 -6.21623 61.82207819 -1.35546875 61.12890625 C2.07144055 59.44660532 3.98983666 58.17046582 6.01953125 54.94140625 C6.8982083 50.98735955 6.80266591 47.16134016 6.64453125 43.12890625 C5.69578125 43.93328125 4.74703125 44.73765625 3.76953125 45.56640625 C-0.413726 49.11308088 -3.04448928 49.31348296 -8.60546875 49.37890625 C-9.91 49.4046875 -11.21453125 49.43046875 -12.55859375 49.45703125 C-18.06580662 48.98109927 -22.01816156 47.09694877 -25.60546875 42.87890625 C-26.32476563 42.06679688 -26.32476563 42.06679688 -27.05859375 41.23828125 C-30.28854933 35.98473904 -30.71708323 30.22165277 -30.66796875 24.19140625 C-30.6637793 23.48846436 -30.65958984 22.78552246 -30.65527344 22.0612793 C-30.49127377 14.54259235 -28.89497158 8.51869278 -23.35546875 3.12890625 C-16.80813136 -1.81400936 -7.69207897 -2.84466602 0 0 Z " fill="#075EC2" transform="translate(615.35546875,324.87109375)"/>
<path d="M0 0 C4.95 0 9.9 0 15 0 C15 9.24 15 18.48 15 28 C25.89 28 36.78 28 48 28 C48 18.76 48 9.52 48 0 C52.29 0 56.58 0 61 0 C61 22.77 61 45.54 61 69 C56.71 69 52.42 69 48 69 C48 59.43 48 49.86 48 40 C37.11 40 26.22 40 15 40 C15 49.57 15 59.14 15 69 C10.05 69 5.1 69 0 69 C0 46.23 0 23.46 0 0 Z " fill="#095BC2" transform="translate(463,306)"/>
<path d="M0 0 C1.18746826 0.01643555 1.18746826 0.01643555 2.39892578 0.03320312 C8.41012487 0.2571766 12.73960925 1.06777035 17 5.5625 C20.71107061 11.08150804 21.59920258 16.11621466 21.609375 22.65625 C21.62591125 23.48838013 21.64244751 24.32051025 21.65948486 25.17785645 C21.70763046 27.80614852 21.7292603 30.43386354 21.75 33.0625 C21.7781878 34.85679935 21.80811912 36.6510722 21.83984375 38.4453125 C21.91337973 42.81766074 21.96315766 47.1896949 22 51.5625 C17.38 51.5625 12.76 51.5625 8 51.5625 C7.505 49.5825 7.505 49.5825 7 47.5625 C5.824375 48.5215625 5.824375 48.5215625 4.625 49.5 C-0.9615647 53.8894437 -7.12312041 53.12278148 -14 52.5625 C-18.41514535 51.16098182 -21.65917223 48.59392561 -24 44.5625 C-25.78983568 39.19299295 -25.88431724 34.36514667 -23.375 29.25 C-18.41498295 23.63734913 -13.29492975 21.3788623 -6 20.5625 C-1.32760798 20.41417009 3.32728725 20.44285728 8 20.5625 C7.7452486 19.24678397 7.47065859 17.93489624 7.1875 16.625 C7.03667969 15.89410156 6.88585937 15.16320312 6.73046875 14.41015625 C6.48941406 13.80042969 6.24835937 13.19070313 6 12.5625 C1.40317487 11.03022496 -2.42147572 10.84186935 -6.875 12.875 C-9.26971972 14.46121285 -9.26971972 14.46121285 -10 17.5625 C-14.29 17.5625 -18.58 17.5625 -23 17.5625 C-21.85237389 10.67674332 -21.85237389 10.67674332 -19.9375 7.9375 C-19.57527344 7.38835937 -19.21304688 6.83921875 -18.83984375 6.2734375 C-13.36317682 1.18048609 -7.28705199 -0.14224672 0 0 Z " fill="#075BC1" transform="translate(557,323.4375)"/>
<path d="M0 0 C6.71354858 3.11147156 10.54467703 8.59170977 13.40625 15.31640625 C14.72217105 19.86231532 14.40625 23.29053053 14.40625 28.31640625 C2.85625 28.31640625 -8.69375 28.31640625 -20.59375 28.31640625 C-19.33736614 35.78028936 -19.33736614 35.78028936 -16.53125 38.81640625 C-12.51038644 40.86961317 -9.02304302 41.31073734 -4.59375 40.31640625 C-3.871875 39.49140625 -3.15 38.66640625 -2.40625 37.81640625 C1.85315964 34.03026435 6.01381889 34.94257779 11.51953125 35.140625 C12.94845703 35.22763672 12.94845703 35.22763672 14.40625 35.31640625 C11.53304657 42.643075 8.67956167 47.19524791 1.33984375 50.53515625 C-1.0453111 51.49885518 -3.0202697 52.07131289 -5.59375 52.31640625 C-6.31175781 52.39117187 -7.02976562 52.4659375 -7.76953125 52.54296875 C-15.50269715 52.99998322 -21.5766393 50.80072122 -27.44921875 45.70703125 C-33.94477 38.71428965 -35.30450849 31.32377767 -35.0625 21.92578125 C-34.1611771 14.98559494 -31.58458816 8.93652076 -26.26171875 4.2734375 C-18.24415971 -1.17953884 -9.50687482 -2.50557695 0 0 Z " fill="#085AC1" transform="translate(677.59375,324.68359375)"/>
<path d="M0 0 C0.66 0 1.32 0 2 0 C2.52352051 1.78603638 2.52352051 1.78603638 3.05761719 3.6081543 C6.84703037 16.43975653 10.9730467 29.13616083 15.25 41.8125 C16.18895431 44.60153311 17.12694732 47.39088108 18.06317139 50.18083191 C18.6379956 51.89325103 19.21442048 53.60513405 19.79278564 55.31636047 C20.05355896 56.09214951 20.31433228 56.86793854 20.58300781 57.66723633 C20.80917786 58.33749344 21.0353479 59.00775055 21.26837158 59.69831848 C22.2472922 62.77797399 23.11223989 65.89283962 24 69 C8.82 69 -6.36 69 -22 69 C-20.12240826 62.11549696 -18.23132193 55.48519111 -15.8203125 48.80859375 C-15.2147394 47.10355268 -14.60927416 45.39847331 -14.00390625 43.69335938 C-13.06935078 41.07597096 -12.13282896 38.45930982 -11.19384766 35.84350586 C-6.95380751 24.00924695 -3.18610287 12.16235273 0 0 Z " fill="#FDFAFA" transform="translate(115,105)"/>
<path d="M0 0 C4.36767349 3.16656328 6.89748374 6.68990813 8.5 11.8125 C8.76410805 14.74914336 8.73307614 17.66685183 8.6953125 20.61328125 C8.6924826 21.44965622 8.68965271 22.28603119 8.68673706 23.14775085 C8.6755832 25.80698226 8.65048763 28.46587118 8.625 31.125 C8.61496399 32.93293783 8.60583923 34.74088096 8.59765625 36.54882812 C8.57565959 40.97018312 8.54116294 45.39128358 8.5 49.8125 C4.21 49.8125 -0.08 49.8125 -4.5 49.8125 C-4.51458252 48.80348633 -4.52916504 47.79447266 -4.54418945 46.75488281 C-4.60224114 43.00485109 -4.67947292 39.25541554 -4.76245117 35.50585938 C-4.79566835 33.88421314 -4.82371035 32.26245219 -4.84643555 30.640625 C-4.88004155 28.30679523 -4.9323576 25.97401365 -4.98828125 23.640625 C-4.99467117 22.91756165 -5.0010611 22.19449829 -5.00764465 21.44952393 C-5.12719645 17.34005625 -5.46610449 14.71424761 -8.5 11.8125 C-11.87246417 11.04679862 -15.09871628 11.24376075 -18.5 11.8125 C-21.07637471 13.69765223 -22.09667428 15.00584857 -23.5 17.8125 C-23.65608023 20.21810273 -23.75804458 22.59952772 -23.81640625 25.0078125 C-23.83718735 25.71525604 -23.85796844 26.42269958 -23.87937927 27.15158081 C-23.94481078 29.41345425 -24.00372974 31.67544462 -24.0625 33.9375 C-24.10569133 35.47006422 -24.14930582 37.00261657 -24.19335938 38.53515625 C-24.30048555 42.29415073 -24.4017709 46.05326292 -24.5 49.8125 C-28.79 49.8125 -33.08 49.8125 -37.5 49.8125 C-37.5 33.3125 -37.5 16.8125 -37.5 -0.1875 C-33.21 -0.1875 -28.92 -0.1875 -24.5 -0.1875 C-24.17 1.1325 -23.84 2.4525 -23.5 3.8125 C-22.736875 3.173125 -21.97375 2.53375 -21.1875 1.875 C-15.27289407 -2.66411618 -6.85431737 -2.32557196 0 0 Z " fill="#0558C1" transform="translate(737.5,325.1875)"/>
<path d="M0 0 C1.29808594 -0.02835938 2.59617187 -0.05671875 3.93359375 -0.0859375 C8.2538867 0.46281876 9.70551011 1.09979113 12.5625 4.375 C16.36781929 11.44684084 15.91721958 19.12849358 15.75 26.9375 C15.6571875 33.0940625 15.6571875 33.0940625 15.5625 39.375 C3.0225 39.375 -9.5175 39.375 -22.4375 39.375 C-22.4375 12.65650134 -22.4375 12.65650134 -15.98046875 5.8359375 C-10.68202979 1.24842832 -6.98923885 0.06926897 0 0 Z " fill="#E43331" transform="translate(722.4375,146.625)"/>
<path d="M0 0 C3.96 0 7.92 0 12 0 C15.49060832 8.38885124 18.36859728 16.93276456 21.1875 25.5625 C22.07339334 28.27327674 22.96324126 30.98270874 23.85546875 33.69140625 C24.24371826 34.87935791 24.63196777 36.06730957 25.03198242 37.29125977 C25.7403192 39.88295445 25.7403192 39.88295445 27 41 C31.62 27.47 36.24 13.94 41 0 C44.96 0 48.92 0 53 0 C51.62767391 6.93304106 49.57488727 13.3341005 47.0859375 19.94140625 C46.71143463 20.94968979 46.33693176 21.95797333 45.95108032 22.99681091 C44.76456047 26.18745761 43.56992386 29.37499243 42.375 32.5625 C41.56456402 34.73742901 40.75466275 36.91255735 39.9453125 39.08789062 C37.9697178 44.39425219 35.98684248 49.69784019 34 55 C29.38 55 24.76 55 20 55 C16.05825992 45.80753673 12.55692489 36.50946458 9.1784668 27.09838867 C8.30723737 24.67284862 7.43030033 22.24942561 6.55273438 19.82617188 C5.98924595 18.26314242 5.42608323 16.6999955 4.86328125 15.13671875 C4.47575432 14.06619514 4.47575432 14.06619514 4.08039856 12.9740448 C2.54574835 8.68745729 1.20515967 4.39096684 0 0 Z " fill="#065BC1" transform="translate(688,405)"/>
<path d="M0 0 C4.43820317 2.60423492 7.11813972 6.45906554 9.265625 11.046875 C9.890625 14.109375 9.890625 14.109375 9.890625 22.109375 C0.650625 22.109375 -8.589375 22.109375 -18.109375 22.109375 C-16.65347145 27.70156726 -16.65347145 27.70156726 -14.484375 30.046875 C-10.9897582 31.6102562 -7.72824462 31.28346412 -4.109375 30.109375 C-3.64015625 29.60019531 -3.1709375 29.09101563 -2.6875 28.56640625 C-0.45413243 26.50441095 1.09912658 26.80581013 4.078125 26.921875 C5.42970703 26.96248047 5.42970703 26.96248047 6.80859375 27.00390625 C7.83919922 27.05611328 7.83919922 27.05611328 8.890625 27.109375 C8.05153365 31.02236537 6.67758032 33.17177344 3.890625 36.109375 C-0.71251625 38.90485932 -4.2510816 39.54142958 -9.609375 39.546875 C-11.51203125 39.57587891 -11.51203125 39.57587891 -13.453125 39.60546875 C-18.75493546 38.88609917 -21.78831336 36.54052511 -25.359375 32.671875 C-29.6129861 26.44337303 -29.87424769 20.47127462 -29.109375 13.109375 C-27.1280389 6.24224419 -22.90921166 2.20928474 -16.734375 -1.203125 C-10.88268766 -2.73570978 -5.53935108 -2.3116977 0 0 Z " fill="#0F61C3" transform="translate(670.109375,421.890625)"/>
<path d="M0 0 C2.07196532 1.16628151 3.95513146 2.43950646 5.64453125 4.12890625 C5.97453125 2.80890625 6.30453125 1.48890625 6.64453125 0.12890625 C10.93453125 0.12890625 15.22453125 0.12890625 19.64453125 0.12890625 C19.64453125 18.27890625 19.64453125 36.42890625 19.64453125 55.12890625 C19.31453125 55.12890625 18.98453125 55.12890625 18.64453125 55.12890625 C18.64453125 37.30890625 18.64453125 19.48890625 18.64453125 1.12890625 C15.34453125 1.12890625 12.04453125 1.12890625 8.64453125 1.12890625 C8.64453125 2.77890625 8.64453125 4.42890625 8.64453125 6.12890625 C6.66453125 7.11890625 6.66453125 7.11890625 4.64453125 8.12890625 C4.38106142 11.31677016 4.38106142 11.31677016 6.58203125 14.25390625 C8.9918629 18.28458552 9.91774637 22.42960616 9.64453125 27.12890625 C8.98453125 28.11890625 8.32453125 29.10890625 7.64453125 30.12890625 C7.61875 29.40445312 7.59296875 28.68 7.56640625 27.93359375 C7.21547719 21.95184835 6.8056265 17.76555525 2.64453125 13.12890625 C-0.36065355 10.76768962 -3.62035313 10.71029988 -7.390625 10.80859375 C-10.55852308 11.32503042 -12.1950181 12.84137027 -14.35546875 15.12890625 C-17.08024129 19.62239078 -16.87211881 24.01891429 -16.35546875 29.12890625 C-15.08154113 32.81659148 -14.10015937 34.54522982 -11.04296875 36.94140625 C-8.12932271 38.22883125 -5.51074185 38.76201403 -2.35546875 39.12890625 C-5.35546875 41.12890625 -5.35546875 41.12890625 -8.35546875 41.12890625 C-8.35546875 41.78890625 -8.35546875 42.44890625 -8.35546875 43.12890625 C-9.01546875 43.12890625 -9.67546875 43.12890625 -10.35546875 43.12890625 C-10.68546875 43.78890625 -11.01546875 44.44890625 -11.35546875 45.12890625 C-12.01546875 45.78890625 -12.67546875 46.44890625 -13.35546875 47.12890625 C-10.71546875 46.79890625 -8.07546875 46.46890625 -5.35546875 46.12890625 C-5.35546875 46.78890625 -5.35546875 47.44890625 -5.35546875 48.12890625 C-4.69546875 48.45890625 -4.03546875 48.78890625 -3.35546875 49.12890625 C-17.6313653 49.70078935 -17.6313653 49.70078935 -22.35546875 46.12890625 C-27.95987006 40.8773244 -30.05679359 36.00392553 -30.65625 28.2265625 C-30.67532458 26.88164 -30.67892346 25.53641939 -30.66796875 24.19140625 C-30.6637793 23.48846436 -30.65958984 22.78552246 -30.65527344 22.0612793 C-30.49127377 14.54259235 -28.89497158 8.51869278 -23.35546875 3.12890625 C-16.80813136 -1.81400936 -7.69207897 -2.84466602 0 0 Z " fill="#0655BF" transform="translate(615.35546875,324.87109375)"/>
<path d="M0 0 C2.375 0.875 2.375 0.875 4.375 3.875 C6.47132445 4.38180044 6.47132445 4.38180044 8.8125 4.4375 C12.33763551 4.62914658 13.2921142 4.8197428 16.375 6.875 C16.64528374 10.59140139 16.555933 13.332201 15.375 16.875 C-1.125 16.875 -17.625 16.875 -34.625 16.875 C-34.625 12.915 -34.625 8.955 -34.625 4.875 C-32.6759375 5.1225 -32.6759375 5.1225 -30.6875 5.375 C-21.78412215 6.3209839 -12.05184739 6.987455 -4.49609375 1.26171875 C-2.625 -0.125 -2.625 -0.125 0 0 Z " fill="#F38603" transform="translate(810.625,169.125)"/>
<path d="M0 0 C4.57493538 1.87156447 6.83592096 4.59169084 9 9 C9.66248496 13.59322907 9.59225322 17.56612378 7.8125 21.875 C4.59545617 25.64670656 1.95785546 28.06917503 -3 28.9375 C-6.85157491 29.24214434 -8.96824605 28.5120247 -12 26 C-15.94936509 21.4864399 -16.34443221 17.31685635 -16.28515625 11.5078125 C-15.76583707 6.94064932 -13.27000075 4.36071509 -10.25 1.125 C-6.87462913 -0.56268543 -3.65385424 -0.5251048 0 0 Z " fill="#FAFCFD" transform="translate(614,335)"/>
<path d="M0 0 C0.66 0 1.32 0 2 0 C5.27607053 11.56100924 1.733337 20.55441202 -3 31 C-3.52574378 32.27432575 -4.05050877 33.54905582 -4.57421875 34.82421875 C-6 38 -6 38 -8 40 C-10.3125 40.5 -10.3125 40.5 -13 40 C-15.86397858 37.26330935 -17.74832516 35.3212929 -18.5 31.375 C-18 29 -18 29 -16.625 27.25 C-14.88176733 24.83629323 -14.55586493 23.38296047 -14 20.5 C-13.28872495 16.97832112 -12.72038538 14.51887535 -10 12 C-8.33333333 11.33333333 -6.66666667 10.66666667 -5 10 C-2.16511915 7.06012356 -1.14533875 3.87653115 0 0 Z " fill="#F6CA05" transform="translate(936,228)"/>
<path d="M0 0 C0.66 0 1.32 0 2 0 C2 42.24 2 84.48 2 128 C13.88 128 25.76 128 38 128 C37.814375 124.019375 37.62875 120.03875 37.4375 115.9375 C37.02355348 106.19819065 36.9598426 96.69746744 38 87 C38.33 87 38.66 87 39 87 C39 101.19 39 115.38 39 130 C26.13 130 13.26 130 0 130 C0 87.1 0 44.2 0 0 Z " fill="#FCC32A" transform="translate(584,116)"/>
<path d="M0 0 C0.33 0 0.66 0 1 0 C1 25.41 1 50.82 1 77 C13.21 77 25.42 77 38 77 C38 57.2 38 37.4 38 17 C50.54 17 63.08 17 76 17 C76 18.32 76 19.64 76 21 C63.79 21 51.58 21 39 21 C39 39.81 39 58.62 39 78 C26.13 78 13.26 78 0 78 C0 52.26 0 26.52 0 0 Z " fill="#D3C66D" transform="translate(662,169)"/>
<path d="M0 0 C4.47149197 1.88737531 7.46839999 4.73219548 9.875 8.9375 C10.76884044 11.82000318 10.875 13.84890088 10.875 16.9375 C10.215 17.9275 9.555 18.9175 8.875 19.9375 C6.72021484 20.27807617 6.72021484 20.27807617 4.0859375 20.23046875 C3.14492188 20.22080078 2.20390625 20.21113281 1.234375 20.20117188 C-0.24289062 20.1634668 -0.24289062 20.1634668 -1.75 20.125 C-3.23886719 20.10469727 -3.23886719 20.10469727 -4.7578125 20.08398438 C-7.21408072 20.04855743 -9.66927285 19.99916196 -12.125 19.9375 C-10.805 19.2775 -9.485 18.6175 -8.125 17.9375 C-10.765 17.6075 -13.405 17.2775 -16.125 16.9375 C-16.125 16.6075 -16.125 16.2775 -16.125 15.9375 C-10.185 15.9375 -4.245 15.9375 1.875 15.9375 C-1.10804964 9.2148501 -1.10804964 9.2148501 -4.125 7.9375 C-5.66523996 7.86799459 -7.20834988 7.85297643 -8.75 7.875 C-9.56726563 7.88402344 -10.38453125 7.89304687 -11.2265625 7.90234375 C-11.85304688 7.91394531 -12.47953125 7.92554688 -13.125 7.9375 C-13.393125 7.31875 -13.66125 6.7 -13.9375 6.0625 C-15.08056848 3.6379767 -15.08056848 3.6379767 -18.125 1.9375 C-12.03687562 -1.71537463 -6.64498568 -2.04168453 0 0 Z " fill="#0456BF" transform="translate(668.125,421.0625)"/>
<path d="M0 0 C0.33 0 0.66 0 1 0 C1 21.45 1 42.9 1 65 C-0.65 64.67 -2.3 64.34 -4 64 C-4.04959611 57.86190964 -4.08581249 51.72393707 -4.10986328 45.58569336 C-4.11989427 43.49940966 -4.13352226 41.41313992 -4.15087891 39.3269043 C-4.17525494 36.32076562 -4.18651236 33.31481355 -4.1953125 30.30859375 C-4.20563507 29.38227646 -4.21595764 28.45595917 -4.22659302 27.50157166 C-4.22749151 22.26519432 -3.71440648 17.95635507 -2 13 C-1.67 13 -1.34 13 -1 13 C-0.67 8.71 -0.34 4.42 0 0 Z " fill="#E9F6F0" transform="translate(849,30)"/>
<path d="M0 0 C0.98114273 0.00586624 1.96228546 0.01173248 2.97315979 0.01777649 C4.08960373 0.01485092 5.20604767 0.01192535 6.35632324 0.00891113 C7.56865128 0.02641922 8.78097931 0.04392731 10.03004456 0.06196594 C11.28793289 0.06525406 12.54582123 0.06854218 13.84182739 0.07192993 C17.20310809 0.08505106 20.56331347 0.11597183 23.92433167 0.15480042 C27.26617746 0.18817902 30.60796948 0.19446728 33.94996643 0.20454407 C45.40745888 0.25650045 56.86875856 0.39439385 68.31910706 0.81977844 C69.548563 0.85164497 69.548563 0.85164497 70.80285645 0.88415527 C73.0381012 0.98701477 73.0381012 0.98701477 76.53395081 1.48774719 C77.52395081 2.97274719 77.52395081 2.97274719 78.53395081 4.48774719 C50.81395081 4.48774719 23.09395081 4.48774719 -5.46604919 4.48774719 C-2.46604919 0.48774719 -2.46604919 0.48774719 0 0 Z " fill="#EBF2FA" transform="translate(925.4660491943359,185.5122528076172)"/>
<path d="M0 0 C0.98484375 0.00902344 1.9696875 0.01804687 2.984375 0.02734375 C4.10585938 0.04474609 4.10585938 0.04474609 5.25 0.0625 C5.74079755 7.42446319 5.74079755 7.42446319 3.375 10.5 C0.16179193 12.86265299 -1.73412924 13.24283708 -5.6875 13.3125 C-6.56277344 13.33828125 -7.43804688 13.3640625 -8.33984375 13.390625 C-10.75 13.0625 -10.75 13.0625 -12.5390625 11.734375 C-14.43463175 9.11726648 -14.20605018 7.18970121 -13.75 4.0625 C-9.83325359 0.00586979 -5.38112413 -0.064061 0 0 Z " fill="#F9FBFC" transform="translate(559.75,352.9375)"/>
<path d="M0 0 C16.5 0 33 0 50 0 C50 1.32 50 2.64 50 4 C33.5 4 17 4 0 4 C0 2.68 0 1.36 0 0 Z " fill="#FCFDFC" transform="translate(776,186)"/>
<path d="M0 0 C0.33 0 0.66 0 1 0 C1 20.46 1 40.92 1 62 C-11.54 62 -24.08 62 -37 62 C-35 60 -35 60 -31.65185547 59.77294922 C-30.22359367 59.77326625 -28.79530788 59.78458639 -27.3671875 59.8046875 C-26.23943405 59.80893234 -26.23943405 59.80893234 -25.08889771 59.81326294 C-22.68410422 59.82447126 -20.27968119 59.84957648 -17.875 59.875 C-16.24609912 59.88502898 -14.61719242 59.89415497 -12.98828125 59.90234375 C-8.99204444 59.92441265 -4.99608506 59.95894649 -1 60 C-1.00222061 59.30731018 -1.00444122 58.61462036 -1.00672913 57.90093994 C-1.0288337 50.69861364 -1.04392829 43.49629696 -1.05493164 36.29394531 C-1.05939946 33.60513148 -1.06636119 30.91634118 -1.07543945 28.22753906 C-1.08755371 24.3652275 -1.09323945 20.50295208 -1.09765625 16.640625 C-1.10539818 14.83419525 -1.10539818 14.83419525 -1.11329651 12.99127197 C-1.11337204 11.87041199 -1.11344757 10.749552 -1.11352539 9.59472656 C-1.115746 8.60877502 -1.11796661 7.62282349 -1.12025452 6.60699463 C-1.01134079 4.2458566 -0.67399991 2.25666764 0 0 Z " fill="#F2D20A" transform="translate(775,186)"/>
<path d="M0 0 C3.23034059 2.98806505 3.92353096 4.69412386 5 9 C-2.26 9 -9.52 9 -17 9 C-15.99631506 3.98157528 -15.70558528 3.05165846 -12 0 C-7.83283908 -1.38905364 -4.23441 -1.12560266 0 0 Z " fill="#F8FBFD" transform="translate(674,335)"/>
<path d="M0 0 C12.54 0 25.08 0 38 0 C38 1.32 38 2.64 38 4 C25.46 4 12.92 4 0 4 C0 2.68 0 1.36 0 0 Z " fill="#FAF3F0" transform="translate(700,186)"/>
<path d="M0 0 C1.9375 1.625 1.9375 1.625 3 4 C2.67272727 10.32727273 2.67272727 10.32727273 0 13 C-5.95169082 13.5410628 -5.95169082 13.5410628 -8.9375 12 C-10.65969311 8.75822473 -10.66174953 5.57642161 -10 2 C-7.07721596 -1.70968744 -4.28951039 -1.36899268 0 0 Z " fill="#0957C0" transform="translate(745,448)"/>
<path d="M0 0 C1.8125 1.125 1.8125 1.125 3 3 C3.36528977 6.4093712 3.6140629 8.88023824 1.9375 11.9375 C-1.15493758 13.63335287 -3.55514741 13.43060657 -7 13 C-9 11.4375 -9 11.4375 -10 9 C-9.93310811 5.18716255 -9.79698862 2.91084414 -7.25 0 C-4.33305134 -1.29642163 -2.98207327 -1.07048784 0 0 Z " fill="#0753BE" transform="translate(692,448)"/>
<path d="M0 0 C0.90492188 0.02320313 1.80984375 0.04640625 2.7421875 0.0703125 C3.65226563 0.08835937 4.56234375 0.10640625 5.5 0.125 C6.19867187 0.14820313 6.89734375 0.17140625 7.6171875 0.1953125 C6.77809615 4.10830287 5.40414282 6.25771094 2.6171875 9.1953125 C-1.98595375 11.99079682 -5.5245191 12.62736708 -10.8828125 12.6328125 C-12.78546875 12.66181641 -12.78546875 12.66181641 -14.7265625 12.69140625 C-18.95010959 12.1183395 -21.09211213 10.85243027 -24.3828125 8.1953125 C-25.7578125 5.9453125 -25.7578125 5.9453125 -26.3828125 4.1953125 C-25.67705078 4.71931641 -25.67705078 4.71931641 -24.95703125 5.25390625 C-24.02310547 5.93646484 -24.02310547 5.93646484 -23.0703125 6.6328125 C-22.45542969 7.08527344 -21.84054687 7.53773438 -21.20703125 8.00390625 C-17.71612488 10.28383439 -14.74590879 10.30546657 -10.6953125 10.2578125 C-9.70144531 10.24878906 -8.70757813 10.23976563 -7.68359375 10.23046875 C-6.92433594 10.21886719 -6.16507813 10.20726562 -5.3828125 10.1953125 C-5.0528125 8.5453125 -4.7228125 6.8953125 -4.3828125 5.1953125 C-5.3728125 5.6903125 -5.3728125 5.6903125 -6.3828125 6.1953125 C-8.7157991 6.23553641 -11.04987916 6.23851497 -13.3828125 6.1953125 C-13.3828125 5.8653125 -13.3828125 5.5353125 -13.3828125 5.1953125 C-12.75632812 5.00195312 -12.12984375 4.80859375 -11.484375 4.609375 C-10.66710937 4.34898437 -9.84984375 4.08859375 -9.0078125 3.8203125 C-8.19570313 3.56507813 -7.38359375 3.30984375 -6.546875 3.046875 C-3.77157905 1.95479104 -3.04423672 0.2495276 0 0 Z " fill="#074ABA" transform="translate(671.3828125,448.8046875)"/>
<path d="M0 0 C2.875 2.3125 2.875 2.3125 5 5 C5 5.99 5 6.98 5 8 C-0.61 8 -6.22 8 -12 8 C-9.4349969 1.58749225 -7.19088604 -1.17402221 0 0 Z " fill="#F7FAFC" transform="translate(664,428)"/>
<path d="M0 0 C6.27 0 12.54 0 19 0 C19 0.33 19 0.66 19 1 C13.06 1 7.12 1 1 1 C1.33 10.9 1.66 20.8 2 31 C7.94 31 13.88 31 20 31 C20 31.66 20 32.32 20 33 C13.4 33 6.8 33 0 33 C0 22.11 0 11.22 0 0 Z " fill="#18803A" transform="translate(192,116)"/>
<path d="M0 0 C1.32 0.33 2.64 0.66 4 1 C4.18175781 1.81984375 4.36351562 2.6396875 4.55078125 3.484375 C4.80214844 4.56203125 5.05351563 5.6396875 5.3125 6.75 C5.55613281 7.81734375 5.79976562 8.8846875 6.05078125 9.984375 C6.97805069 12.93026802 7.94109075 14.72581606 10 17 C10.33 17 10.66 17 11 17 C11.66 19.97 12.32 22.94 13 26 C14.32 26 15.64 26 17 26 C16.67 27.98 16.34 29.96 16 32 C12.72206772 28.14879705 10.24050365 24.18938523 7.875 19.75 C7.52099121 19.0890332 7.16698242 18.42806641 6.80224609 17.74707031 C4.27325085 12.87491273 2.90553502 8.43321013 2 3 C1.34 2.01 0.68 1.02 0 0 Z " fill="#0F7F67" transform="translate(887,95)"/>
<path d="M0 0 C0.33 0.99 0.66 1.98 1 3 C0.525625 3.94875 0.05125 4.8975 -0.4375 5.875 C-3.5870407 12.69418903 -2.63211023 21.0786684 -0.875 28.1875 C-0.58625 29.445625 -0.2975 30.70375 0 32 C-0.66 32.66 -1.32 33.32 -2 34 C-5.22132267 23.74162127 -5.34202059 15.56841215 -4 5 C-3.34 5 -2.68 5 -2 5 C-1.34 3.35 -0.68 1.7 0 0 Z " fill="#EED80D" transform="translate(912,195)"/>
<path d="M0 0 C-0.90492188 0.4021875 -0.90492188 0.4021875 -1.828125 0.8125 C-8.12505659 3.90002775 -10.45408192 6.46916667 -13 13 C-7.555 12.505 -7.555 12.505 -2 12 C-2 12.99 -2 13.98 -2 15 C-6.29 15 -10.58 15 -15 15 C-13.83549036 8.01294219 -11.98368461 4.32872945 -6.4375 0 C-3.65196452 -1.14278379 -2.78435178 -0.84766735 0 0 Z " fill="#174CBD" transform="translate(549,326)"/>
<path d="M0 0 C4.29 0 8.58 0 13 0 C13.33 0.99 13.66 1.98 14 3 C18.54223397 5.63742618 23.87327152 5.62171712 29 6 C29 6.33 29 6.66 29 7 C16.98010109 7.5683665 16.98010109 7.5683665 13 4 C13 3.34 13 2.68 13 2 C9.37 2 5.74 2 2 2 C2.66 3.98 3.32 5.96 4 8 C0.78253679 5.34209561 0.91766992 4.58834962 0 0 Z " fill="#0740B7" transform="translate(586,381)"/>
<path d="M0 0 C0.66 0 1.32 0 2 0 C2 0.99 2 1.98 2 3 C-14.5 3 -31 3 -48 3 C-48 2.67 -48 2.34 -48 2 C-47.41340103 1.98969254 -46.82680206 1.97938507 -46.22242737 1.96876526 C-40.1396213 1.86092806 -34.05697026 1.74631244 -27.97436523 1.62768555 C-25.70161164 1.58426335 -23.42882387 1.54259384 -21.15600586 1.50268555 C-17.89686768 1.44515881 -14.63790269 1.38141448 -11.37890625 1.31640625 C-10.35599991 1.29969376 -9.33309357 1.28298126 -8.27919006 1.26576233 C-7.33829025 1.24581711 -6.39739044 1.22587189 -5.42797852 1.20532227 C-4.59524918 1.18977798 -3.76251984 1.1742337 -2.90455627 1.15821838 C-0.99033415 1.20571386 -0.99033415 1.20571386 0 0 Z " fill="#EDF7F8" transform="translate(824,187)"/>
<path d="M0 0 C3.96 0 7.92 0 12 0 C12 0.33 12 0.66 12 1 C20.25 1.33 28.5 1.66 37 2 C37 2.33 37 2.66 37 3 C24.79 3 12.58 3 0 3 C0 2.01 0 1.02 0 0 Z " fill="#EAF4F8" transform="translate(701,187)"/>
<path d="M0 0 C0.33 0.99 0.66 1.98 1 3 C-7.92172826 10.25343761 -19.48613485 13.93990736 -31 13 C-31 12.67 -31 12.34 -31 12 C-30.37544922 11.87995605 -29.75089844 11.75991211 -29.10742188 11.63623047 C-26.23351255 11.07091485 -23.36722665 10.47325085 -20.5 9.875 C-19.51773438 9.68679688 -18.53546875 9.49859375 -17.5234375 9.3046875 C-10.32697938 7.7694431 -5.22419089 5.22419089 0 0 Z " fill="#0B51E7" transform="translate(881,286)"/>
<path d="M0 0 C2 3 2 3 2 6 C-1.12968326 9.22173277 -2.9866041 9.9268103 -7.515625 10.25390625 C-11.01883092 10.2503605 -14.50129533 10.17253886 -18 10 C-18.33 9.34 -18.66 8.68 -19 8 C-17.53626953 8.03480469 -17.53626953 8.03480469 -16.04296875 8.0703125 C-14.77066406 8.08835937 -13.49835937 8.10640625 -12.1875 8.125 C-10.29064453 8.15980469 -10.29064453 8.15980469 -8.35546875 8.1953125 C-4.8661976 8.27581918 -4.8661976 8.27581918 -2 6 C-1.27034634 3.43717258 -1.27034634 3.43717258 -1 1 C-1.99 1.495 -1.99 1.495 -3 2 C-5.3329866 2.04022391 -7.66706666 2.04320247 -10 2 C-10 1.67 -10 1.34 -10 1 C-6.56484998 0.37542727 -3.50935186 0 0 0 Z " fill="#053DB5" transform="translate(561,366)"/>
<path d="M0 0 C3.96 0 7.92 0 12 0 C12.33 1.32 12.66 2.64 13 4 C12.67 3.34 12.34 2.68 12 2 C7.545 2.495 7.545 2.495 3 3 C3.66 5.97 4.32 8.94 5 12 C1.71822987 8.71822987 1.24594089 4.41742679 0 0 Z " fill="#0846B9" transform="translate(688,405)"/>
<path d="M0 0 C3.96 0 7.92 0 12 0 C11.625 2.9375 11.625 2.9375 11 6 C10.01 6.495 10.01 6.495 9 7 C9.33 5.35 9.66 3.7 10 2 C7.03 2 4.06 2 1 2 C0.67 2.99 0.34 3.98 0 5 C0 3.35 0 1.7 0 0 Z " fill="#0848BC" transform="translate(729,405)"/>
<path d="M0 0 C0.66 0.99 1.32 1.98 2 3 C1.34 3 0.68 3 0 3 C0.33 3.99 0.66 4.98 1 6 C0.34 6.66 -0.32 7.32 -1 8 C-1 9.32 -1 10.64 -1 12 C-1.66 12 -2.32 12 -3 12 C-3.66 13.32 -4.32 14.64 -5 16 C-3.90301833 10.30860098 -2.45946923 5.25432063 0 0 Z M0 8 C0.33 8.99 0.66 9.98 1 11 C0.34 10.67 -0.32 10.34 -1 10 C-0.67 9.34 -0.34 8.68 0 8 Z " fill="#0A48BA" transform="translate(727,413)"/>
<path d="M0 0 C0.33 0.66 0.66 1.32 1 2 C0.34 2 -0.32 2 -1 2 C-1.33 2.99 -1.66 3.98 -2 5 C-4.55170871 6.5838192 -7.07606119 7.37344168 -10 8 C-10 8.66 -10 9.32 -10 10 C-11.32 9.67 -12.64 9.34 -14 9 C-9.38 6.03 -4.76 3.06 0 0 Z " fill="#FBBA0D" transform="translate(325,70)"/>
<path d="M0 0 C3.96 0 7.92 0 12 0 C11.67 1.98 11.34 3.96 11 6 C10.67 4.68 10.34 3.36 10 2 C6.7 2 3.4 2 0 2 C0 1.34 0 0.68 0 0 Z " fill="#014ABA" transform="translate(701,325)"/>
<path d="M0 0 C1.32 1.65 2.64 3.3 4 5 C3.34 5 2.68 5 2 5 C2.5053125 5.54269531 3.010625 6.08539063 3.53125 6.64453125 C4.1809375 7.35996094 4.830625 8.07539063 5.5 8.8125 C6.1496875 9.52019531 6.799375 10.22789062 7.46875 10.95703125 C9 13 9 13 9 16 C0.41165919 8.48520179 0.41165919 8.48520179 -0.59765625 4.84375 C-0.5625 2.9375 -0.5625 2.9375 0 0 Z " fill="#0B50BF" transform="translate(729,285)"/>
<path d="M0 0 C3.3 0 6.6 0 10 0 C6.77208445 2.1519437 5.71599191 2.20086443 2 2 C1.34 3.65 0.68 5.3 0 7 C-0.66 6.34 -1.32 5.68 -2 5 C-1.34 3.35 -0.68 1.7 0 0 Z " fill="#FBBE15" transform="translate(407,184)"/>
<path d="M0 0 C0.33 0 0.66 0 1 0 C1.06058594 0.62648438 1.12117187 1.25296875 1.18359375 1.8984375 C1.26738281 2.71570313 1.35117187 3.53296875 1.4375 4.375 C1.51871094 5.18710937 1.59992187 5.99921875 1.68359375 6.8359375 C1.89090114 9.04272805 1.89090114 9.04272805 3 11 C6.02934491 11.65772428 6.02934491 11.65772428 9 12 C7 14 7 14 4.375 14.125 C3.59125 14.08375 2.8075 14.0425 2 14 C0.09391902 10.78817851 -0.22266247 8.46117397 -0.125 4.75 C-0.09792969 3.41195313 -0.09792969 3.41195313 -0.0703125 2.046875 C-0.04710937 1.37140625 -0.02390625 0.6959375 0 0 Z " fill="#E8D711" transform="translate(849,284)"/>
<path d="M0 0 C0 0.99 0 1.98 0 3 C-0.474375 3.45375 -0.94875 3.9075 -1.4375 4.375 C-3.44583349 6.46366683 -3.61869524 8.1783448 -4 11 C-5.32 11 -6.64 11 -8 11 C-6.52670958 5.99081256 -3.72484762 3.48192278 0 0 Z " fill="#0852E3" transform="translate(898,262)"/>
<path d="M0 0 C0.66 1.32 1.32 2.64 2 4 C2.99 4.33 3.98 4.66 5 5 C3.35 6.65 1.7 8.3 0 10 C-0.66 9.67 -1.32 9.34 -2 9 C-1.34 6.03 -0.68 3.06 0 0 Z " fill="#E9C912" transform="translate(837,225)"/>
<path d="M0 0 C-2.66666667 1.33333333 -5.33333333 2.66666667 -8 4 C-8.99 3.34 -9.98 2.68 -11 2 C-7.374967 -1.625033 -4.81746234 -1.01907857 0 0 Z " fill="#ECCE0A" transform="translate(865,92)"/>
<path d="M0 0 C0.33 0 0.66 0 1 0 C1 1.98 1 3.96 1 6 C1.66 6 2.32 6 3 6 C3.33 6.99 3.66 7.98 4 9 C2.5625 11.1875 2.5625 11.1875 1 13 C-1.42857143 4.57142857 -1.42857143 4.57142857 0 0 Z " fill="#0A55E3" transform="translate(898,248)"/>
<path d="M0 0 C0.33 0.99 0.66 1.98 1 3 C-0.42859407 4.03325986 -1.86822383 5.05127634 -3.3125 6.0625 C-4.51326172 6.91521484 -4.51326172 6.91521484 -5.73828125 7.78515625 C-6.48464844 8.18605469 -7.23101563 8.58695312 -8 9 C-8.99 8.67 -9.98 8.34 -11 8 C-10.37351562 7.59007812 -9.74703125 7.18015625 -9.1015625 6.7578125 C-8.28429687 6.21898437 -7.46703125 5.68015625 -6.625 5.125 C-5.40683594 4.32449219 -5.40683594 4.32449219 -4.1640625 3.5078125 C-1.92405904 2.04134945 -1.92405904 2.04134945 0 0 Z " fill="#064CEF" transform="translate(881,286)"/>
<path d="M0 0 C1.32 0.33 2.64 0.66 4 1 C4.66 4.3 5.32 7.6 6 11 C5.01 11.495 5.01 11.495 4 12 C3.87882813 11.38511719 3.75765625 10.77023438 3.6328125 10.13671875 C3.46523438 9.32847656 3.29765625 8.52023438 3.125 7.6875 C2.96257813 6.88699219 2.80015625 6.08648437 2.6328125 5.26171875 C2.05521001 2.74698882 2.05521001 2.74698882 0 0 Z " fill="#1F8763" transform="translate(887,95)"/>
<path d="M0 0 C1.98 0.66 3.96 1.32 6 2 C5.835 2.598125 5.67 3.19625 5.5 3.8125 C4.8885876 6.11344336 4.8885876 6.11344336 5 9 C2.67527795 6.14693203 1.2491742 3.45925163 0 0 Z " fill="#EBD410" transform="translate(835,253)"/>
<path d="M0 0 C0.70125 0.2475 1.4025 0.495 2.125 0.75 C2.455 1.74 2.785 2.73 3.125 3.75 C2.3825 3.358125 1.64 2.96625 0.875 2.5625 C-0.0325 2.294375 -0.94 2.02625 -1.875 1.75 C-4.00844768 3.1416876 -4.00844768 3.1416876 -5.875 4.75 C-6.865 4.42 -7.855 4.09 -8.875 3.75 C-3.58269231 -0.31153846 -3.58269231 -0.31153846 0 0 Z " fill="#F17702" transform="translate(810.875,169.25)"/>
<path d="M0 0 C0 0.66 0 1.32 0 2 C-3.47325181 3.1577506 -6.36067448 3.06866652 -10 3 C-7.29536552 -0.8183075 -4.37912428 -0.24787496 0 0 Z " fill="#0546BB" transform="translate(660,421)"/>
<path d="M0 0 C0.66 0 1.32 0 2 0 C2.33 2.31 2.66 4.62 3 7 C1.68 6.67 0.36 6.34 -1 6 C-0.67 4.02 -0.34 2.04 0 0 Z " fill="#ECD611" transform="translate(936,228)"/>
<path d="M0 0 C1.32 0.99 2.64 1.98 4 3 C3.67 4.98 3.34 6.96 3 9 C0.90250005 6.64031256 0.03094296 5.45383006 -0.1875 2.25 C-0.125625 1.5075 -0.06375 0.765 0 0 Z " fill="#0C4DBD" transform="translate(642,445)"/>
<path d="M0 0 C1.27875 -0.061875 2.5575 -0.12375 3.875 -0.1875 C4.95394531 -0.23970703 4.95394531 -0.23970703 6.0546875 -0.29296875 C6.69664062 -0.19628906 7.33859375 -0.09960938 8 0 C8.66 0.99 9.32 1.98 10 3 C7 4 7 4 4 3 C4 2.34 4 1.68 4 1 C2.68 0.67 1.36 0.34 0 0 Z " fill="#1161C4" transform="translate(656,420)"/>
<path d="M0 0 C-0.66 1.32 -1.32 2.64 -2 4 C-3.65 4 -5.3 4 -7 4 C-3.375 0 -3.375 0 0 0 Z " fill="#E12725" transform="translate(767,54)"/>
</svg>
